<svg width="306" height="114" viewBox="0 0 306 114" fill="none" xmlns="http://www.w3.org/2000/svg">
<path d="M181.532 0.664062H180.665V113.601H181.532V0.664062Z" fill="#4C4C4E"/>
<path fill-rule="evenodd" clip-rule="evenodd" d="M250.679 83.2898H232.812C231.67 83.2836 230.54 83.0522 229.487 82.6088C228.435 82.1655 227.48 81.5188 226.677 80.7059C225.874 79.8931 225.24 78.9299 224.81 77.8715C224.38 76.8132 224.163 75.6804 224.171 74.5381V39.7205C224.159 37.4146 225.061 35.198 226.682 33.5572C228.302 31.9163 230.507 30.9854 232.812 30.9688H296.613C298.905 31.0061 301.09 31.9461 302.693 33.5847C304.296 35.2233 305.188 37.4281 305.176 39.7205V74.5381C305.184 75.6804 304.967 76.8132 304.537 77.8715C304.107 78.9299 303.473 79.8931 302.67 80.7059C301.867 81.5188 300.912 82.1655 299.859 82.6088C298.807 83.0522 297.677 83.2836 296.534 83.2898H250.679Z" fill="#76C044"/>
<path d="M226.6 51.6269H234.311V54.7807C235.368 53.6116 236.668 52.6872 238.12 52.0717C239.571 51.4563 241.14 51.1646 242.715 51.2169C248.029 51.2169 251.057 54.5126 251.057 60.6782V76.2578H243.299V61.7505C243.299 58.3444 242.29 56.7045 239.845 56.7045C237.401 56.7045 235.651 58.2814 234.311 60.5836V76.2578H226.6V51.6269Z" fill="white"/>
<path d="M217.011 41.5046C217.918 41.5077 218.803 41.7791 219.555 42.2845C220.307 42.7899 220.893 43.5067 221.238 44.3446C221.583 45.1824 221.673 46.1037 221.495 46.9924C221.318 47.8811 220.881 48.6972 220.24 49.338C219.6 49.9788 218.783 50.4155 217.895 50.5931C217.006 50.7707 216.085 50.6811 215.247 50.3358C214.409 49.9904 213.692 49.4047 213.187 48.6525C212.681 47.9003 212.41 47.0153 212.407 46.1091C212.396 45.5015 212.508 44.898 212.736 44.3345C212.963 43.771 213.302 43.2592 213.732 42.8294C214.162 42.3997 214.673 42.061 215.237 41.8333C215.8 41.6057 216.404 41.4939 217.011 41.5046Z" fill="#76C044"/>
<path d="M221.458 51.5312H212.423V76.4303H221.458V51.5312Z" fill="#76C044"/>
<path fill-rule="evenodd" clip-rule="evenodd" d="M275.641 47.3047C276.193 47.3147 276.735 47.4609 277.217 47.7304C277.737 48.0063 278.165 48.4284 278.447 48.9446C278.734 49.4438 278.884 50.0092 278.884 50.5846C278.884 51.16 278.734 51.7254 278.447 52.2246C278.168 52.7375 277.746 53.159 277.233 53.4388C276.736 53.7222 276.173 53.8713 275.601 53.8713C275.029 53.8713 274.466 53.7222 273.969 53.4388C273.457 53.1583 273.035 52.7369 272.755 52.2246C272.467 51.726 272.315 51.1604 272.315 50.5846C272.315 50.0089 272.467 49.4433 272.755 48.9446C273.037 48.4284 273.465 48.0063 273.985 47.7304C274.467 47.4609 275.009 47.3147 275.562 47.3047M277.927 49.2127C277.691 48.7834 277.335 48.4326 276.902 48.2035C276.491 47.9699 276.027 47.8471 275.554 47.8471C275.081 47.8471 274.617 47.9699 274.206 48.2035C273.774 48.4341 273.418 48.7845 273.181 49.2127C272.941 49.6274 272.815 50.0979 272.815 50.5767C272.815 51.0556 272.941 51.526 273.181 51.9407C273.415 52.3657 273.765 52.7156 274.19 52.9499C274.605 53.1878 275.075 53.313 275.554 53.313C276.032 53.313 276.503 53.1878 276.918 52.9499C277.344 52.717 277.694 52.3667 277.927 51.9407C278.165 51.5255 278.29 51.0553 278.29 50.5767C278.29 50.0982 278.165 49.6279 277.927 49.2127ZM276.618 51.4361C276.686 51.7795 276.781 52.1169 276.902 52.4453H276.413C276.305 52.1596 276.226 51.8638 276.177 51.5623C276.066 51.0577 275.861 50.8684 275.436 50.8527H274.994V52.4296H274.521V48.8816C274.823 48.8272 275.129 48.8008 275.436 48.8027C275.818 48.7689 276.199 48.8754 276.508 49.1023C276.601 49.1914 276.675 49.2992 276.724 49.4188C276.773 49.5384 276.796 49.667 276.792 49.7962C276.793 50.0056 276.726 50.2099 276.601 50.3778C276.476 50.5457 276.299 50.6681 276.098 50.7265C276.243 50.7934 276.369 50.8968 276.463 51.0267C276.557 51.1565 276.616 51.3084 276.634 51.4677M276.303 49.8908C276.303 49.4177 275.956 49.2127 275.451 49.2127C275.294 49.194 275.135 49.194 274.978 49.2127V50.5531H275.467C275.972 50.5531 276.287 50.2692 276.287 49.8592" fill="white"/>
<path d="M276.082 80.1384C276.097 81.2258 275.871 82.303 275.419 83.2922H266.447C268.024 82.8191 268.97 81.9361 268.97 80.7061C268.97 78.9558 266.92 77.8204 263.277 77.8204C259.382 77.8204 257.364 78.8769 257.364 80.6273C257.364 81.9361 258.168 82.8191 259.729 83.2922H250.678C250.382 82.5885 250.232 81.8321 250.236 81.0688C250.236 78.1831 252.46 76.0701 256.765 74.9347C254.872 74.3513 253.879 73.3578 253.879 71.9071C253.879 70.0148 255.267 68.7533 258.042 68.1541C253.706 66.8768 251.845 64.7953 251.514 60.7427C251.411 59.5191 251.572 58.2875 251.987 57.1317C254.179 51.108 265.375 47.97 265.375 47.97L264.57 46.5508L269.963 48.1277L269.096 53.016L267.961 51.7703C262.631 53.5522 259.934 56.2644 259.099 58.3774C258.263 60.4904 258.815 64.685 262.788 64.685C266.762 64.685 268.339 61.5312 267.172 58.882C266.005 56.2329 262.363 56.359 262.363 56.359L267.472 52.8583C268.576 53.1824 269.636 53.6433 270.626 54.2302C271.817 54.8892 272.819 55.8426 273.537 56.9993C274.255 58.156 274.664 59.4774 274.725 60.8374C274.725 65.3315 272.061 67.9176 266.841 68.8322C263.451 69.4156 261.29 68.8322 261.29 70.8033C261.29 72.3801 263.435 72.2225 268.071 72.8059C273.354 73.4997 276.129 76.0543 276.129 80.028" fill="white"/>
<path d="M4.30912 91.368L0.824219 91.3789L0.885647 110.932L4.37054 110.921L4.30912 91.368Z" fill="#4C4C4E"/>
<path d="M6.10352 97.6706H9.25728V99.7994C9.58906 99.1141 10.0813 98.5191 10.6922 98.0648C11.4602 97.5394 12.381 97.2842 13.3099 97.3394C14.0997 97.3035 14.8873 97.4492 15.6121 97.7652C16.2198 98.0216 16.7596 98.4156 17.189 98.9163C17.5735 99.3786 17.8581 99.9155 18.0248 100.493C18.1672 101.151 18.2202 101.824 18.1824 102.496V110.853H14.9183V104.199C14.9183 103.836 14.9183 103.426 14.9183 102.969C14.8799 102.531 14.779 102.101 14.6187 101.692C14.4637 101.301 14.208 100.958 13.8776 100.698C13.4853 100.413 13.0056 100.273 12.5214 100.304C12.0381 100.29 11.5579 100.387 11.118 100.588C10.7503 100.76 10.4267 101.013 10.1719 101.329C9.92312 101.647 9.74079 102.011 9.63574 102.401C9.52197 102.818 9.46365 103.247 9.46228 103.679V110.916H6.13505L6.10352 97.6706Z" fill="#4C4C4E"/>
<path d="M31.8702 109.705C30.7413 108.086 30.1358 106.159 30.1357 104.186C30.1347 102.608 30.519 101.055 31.2553 99.66C31.1168 99.3928 30.9531 99.1393 30.7664 98.9031C30.3447 98.4117 29.8161 98.0233 29.2211 97.7678C28.5114 97.4554 27.7412 97.3046 26.9661 97.3262C26.0356 97.2768 25.115 97.5375 24.3485 98.0674C23.7391 98.5037 23.2464 99.0831 22.9135 99.7546V97.6416H19.7598V110.903H23.0712V103.65C23.0688 103.224 23.1218 102.8 23.2289 102.388C23.3319 101.998 23.5144 101.632 23.7651 101.316C24.021 101.001 24.3444 100.748 24.7112 100.575C25.151 100.374 25.6312 100.277 26.1146 100.291C26.5982 100.265 27.0762 100.404 27.4707 100.685C27.797 100.945 28.0475 101.288 28.1961 101.678C28.3592 102.087 28.4602 102.517 28.4957 102.956C28.4957 103.413 28.4957 103.807 28.4957 104.186V110.903H31.8072L31.8702 109.705Z" fill="#4C4C4E"/>
<path d="M57.0058 97.5635L53.4578 106.851L49.8941 97.5793H47.0557C48.6766 99.355 49.5763 101.672 49.5787 104.076C49.5777 104.524 49.5461 104.972 49.4841 105.416L51.6602 110.73H55.1924L60.3803 97.4531L57.0058 97.5635Z" fill="#4C4C4E"/>
<path d="M68.4692 108.961H68.3903C67.9498 109.65 67.3203 110.197 66.5769 110.538C65.8139 110.883 64.9859 111.06 64.1485 111.058C63.5389 111.086 62.9285 111.027 62.3351 110.885C61.7687 110.736 61.2343 110.485 60.7582 110.144C60.3055 109.812 59.9291 109.387 59.6544 108.898C59.3662 108.366 59.2196 107.768 59.2286 107.163C59.2083 106.532 59.338 105.905 59.6071 105.334C59.8883 104.83 60.2823 104.399 60.7582 104.073C61.2347 103.714 61.7676 103.437 62.3351 103.253C62.8478 103.055 63.375 102.896 63.912 102.78C64.5334 102.681 65.1599 102.618 65.7885 102.59C66.4087 102.59 66.9974 102.59 67.5546 102.59H68.3746V102.18C68.3989 101.824 68.3338 101.467 68.1851 101.142C68.0363 100.817 67.8088 100.534 67.5231 100.32C66.8769 99.8857 66.1088 99.6702 65.3312 99.7046C64.661 99.7021 63.9967 99.8307 63.3758 100.083C62.792 100.319 62.2573 100.661 61.799 101.092L60.1275 99.3419C60.8441 98.6162 61.7261 98.0751 62.6978 97.7651C63.6782 97.4331 64.7061 97.2627 65.7412 97.2605C66.5465 97.2392 67.3502 97.3457 68.1223 97.5758C68.6888 97.7547 69.2217 98.0265 69.6992 98.38C70.1002 98.6867 70.4331 99.0733 70.6768 99.5154C70.9011 99.9279 71.0708 100.368 71.1814 100.824C71.2777 101.249 71.3358 101.682 71.3549 102.117C71.3549 102.527 71.3549 102.89 71.3549 103.205V110.837H68.4692V108.961ZM68.2642 104.845H67.5704C67.1131 104.845 66.5927 104.845 65.9935 104.845C65.4601 104.881 64.9318 104.971 64.4166 105.113C63.949 105.23 63.5094 105.439 63.1235 105.728C62.9524 105.859 62.8156 106.029 62.7249 106.224C62.6343 106.419 62.5925 106.633 62.6032 106.848C62.5939 107.125 62.6651 107.399 62.8082 107.636C62.9489 107.849 63.1313 108.032 63.3443 108.172C63.5701 108.322 63.8213 108.429 64.0854 108.488C64.3593 108.553 64.6398 108.584 64.9212 108.582C65.3751 108.62 65.8319 108.566 66.265 108.426C66.6981 108.285 67.099 108.059 67.4442 107.763C67.9808 107.191 68.2748 106.433 68.2642 105.649V104.845Z" fill="#4C4C4E"/>
<path d="M71.2285 100.338V97.5312H73.9565V93.6836H77.268V97.5312H80.9106V100.354H77.2838V106.125C77.2557 106.676 77.3871 107.224 77.6622 107.702C77.8338 107.92 78.0598 108.088 78.3172 108.19C78.5747 108.293 78.8546 108.326 79.1287 108.286C79.4514 108.281 79.7732 108.249 80.0906 108.191C80.3891 108.149 80.6746 108.041 80.9264 107.876V110.667C80.5166 110.851 80.0801 110.968 79.6333 111.014C79.1893 111.079 78.7416 111.116 78.293 111.124C77.5571 111.147 76.8223 111.051 76.1169 110.84C75.6027 110.673 75.1445 110.367 74.7923 109.957C74.4606 109.526 74.2339 109.024 74.13 108.491C74.0071 107.814 73.949 107.128 73.9565 106.441V100.338H71.2285Z" fill="#4C4C4E"/>
<path d="M83.9858 105.29C84.0169 105.734 84.136 106.168 84.3364 106.566C84.5367 106.964 84.8142 107.318 85.1527 107.608C85.8272 108.16 86.6781 108.451 87.5496 108.428C88.2834 108.452 89.0096 108.272 89.6468 107.907C90.2046 107.561 90.7003 107.124 91.1133 106.614L93.4944 108.396C92.8052 109.264 91.9111 109.947 90.8926 110.383C89.9414 110.792 88.9162 111.002 87.8807 110.998C86.9181 111.006 85.962 110.84 85.0581 110.509C84.2388 110.215 83.4839 109.765 82.8347 109.185C82.1651 108.569 81.6285 107.823 81.2578 106.993C80.88 106.086 80.6855 105.113 80.6855 104.131C80.6855 103.148 80.88 102.176 81.2578 101.269C81.6277 100.438 82.1645 99.6917 82.8347 99.0768C83.4939 98.455 84.2715 97.9724 85.1212 97.6576C86.0194 97.3238 86.9699 97.153 87.928 97.153C88.7922 97.1409 89.65 97.3017 90.4511 97.626C91.1977 97.9379 91.8656 98.4119 92.4064 99.0137C92.9793 99.6719 93.4137 100.439 93.6837 101.269C94.0101 102.287 94.1646 103.353 94.141 104.422V105.337L83.9858 105.29ZM90.7191 102.782C90.73 102.357 90.6545 101.933 90.4973 101.538C90.3402 101.142 90.1045 100.782 89.8045 100.48C89.1272 99.8876 88.2428 99.5871 87.3446 99.6445C86.913 99.6166 86.4803 99.6779 86.0734 99.8243C85.6665 99.9708 85.2941 100.199 84.9793 100.496C84.3773 101.122 84.005 101.934 83.9228 102.798L90.7191 102.782Z" fill="#4C4C4E"/>
<path d="M99.376 100.276V97.4529H102.12V93.6211H105.431V97.4529H109.074V100.276H105.431V106.078C105.4 106.63 105.532 107.178 105.81 107.655C105.981 107.873 106.207 108.041 106.465 108.144C106.722 108.246 107.002 108.279 107.276 108.239C107.599 108.237 107.921 108.206 108.238 108.144C108.536 108.101 108.821 107.993 109.074 107.829V110.62C108.664 110.804 108.227 110.921 107.781 110.967C107.337 111.034 106.889 111.071 106.44 111.077C105.705 111.1 104.97 111.004 104.264 110.793C103.749 110.628 103.29 110.322 102.94 109.91C102.602 109.483 102.375 108.979 102.277 108.444C102.148 107.768 102.085 107.082 102.088 106.394V100.276H99.376Z" fill="#4C4C4E"/>
<path d="M112.796 105.224C112.827 105.668 112.946 106.102 113.146 106.5C113.346 106.898 113.624 107.252 113.962 107.542C114.636 108.096 115.488 108.387 116.359 108.362C117.093 108.386 117.819 108.206 118.457 107.841C119.014 107.496 119.51 107.058 119.923 106.548L122.304 108.346C121.637 109.222 120.766 109.92 119.765 110.38C118.815 110.792 117.789 111.001 116.754 110.995C115.791 111.001 114.835 110.835 113.931 110.506C113.079 110.194 112.297 109.717 111.629 109.103C110.96 108.487 110.424 107.741 110.052 106.911C109.675 106.007 109.481 105.037 109.481 104.057C109.481 103.077 109.675 102.107 110.052 101.203C110.417 100.365 110.954 99.6125 111.629 98.9952C112.29 98.3761 113.067 97.8938 113.915 97.576C114.813 97.2439 115.764 97.0783 116.722 97.0871C117.587 97.0702 118.445 97.2312 119.245 97.5602C119.993 97.8702 120.661 98.3445 121.2 98.9479C121.772 99.601 122.206 100.362 122.478 101.187C122.804 102.206 122.959 103.271 122.935 104.341V105.255L112.796 105.224ZM119.592 102.717C119.603 102.291 119.527 101.868 119.37 101.472C119.213 101.076 118.977 100.717 118.677 100.414C118 99.8217 117.116 99.5213 116.217 99.5786C115.786 99.5508 115.353 99.612 114.946 99.7585C114.539 99.905 114.167 100.134 113.852 100.43C113.251 101.057 112.879 101.868 112.796 102.732L119.592 102.717Z" fill="#4C4C4E"/>
<path d="M133.878 101.363C133.525 100.983 133.115 100.659 132.664 100.402C132.271 100.174 131.825 100.055 131.371 100.055C130.837 100.044 130.306 100.147 129.814 100.356C129.322 100.565 128.88 100.876 128.517 101.269C128.183 101.641 127.926 102.075 127.76 102.546C127.588 103.021 127.502 103.523 127.508 104.028C127.507 104.54 127.598 105.047 127.776 105.526C127.945 105.995 128.208 106.424 128.548 106.788C128.894 107.163 129.313 107.463 129.778 107.671C130.273 107.896 130.812 108.009 131.355 108.002C131.852 108.011 132.343 107.903 132.79 107.687C133.237 107.47 133.626 107.152 133.926 106.756L136.133 109.122C135.793 109.46 135.405 109.747 134.982 109.973C134.565 110.209 134.127 110.404 133.673 110.557C133.258 110.7 132.83 110.805 132.396 110.872C132.047 110.932 131.694 110.963 131.34 110.967C130.394 110.977 129.453 110.817 128.564 110.494C127.713 110.189 126.934 109.713 126.275 109.094C125.615 108.476 125.09 107.728 124.732 106.898C123.977 105.071 123.977 103.018 124.732 101.19C125.086 100.356 125.61 99.6037 126.269 98.9821C126.929 98.3605 127.71 97.8827 128.564 97.579C129.466 97.2396 130.423 97.0686 131.387 97.0744C132.26 97.0746 133.126 97.2349 133.941 97.5474C134.809 97.8836 135.583 98.4246 136.196 99.1243L133.878 101.363Z" fill="#4C4C4E"/>
<path d="M140.69 99.235C140.993 98.5929 141.468 98.0471 142.062 97.6581C142.813 97.1781 143.694 96.9414 144.585 96.9801C145.359 96.9545 146.129 97.0999 146.84 97.4058C147.449 97.6668 147.989 98.0663 148.417 98.5727C148.799 99.037 149.083 99.5732 149.253 100.15C149.417 100.788 149.502 101.445 149.505 102.105V110.478H146.194V103.918C146.194 103.54 146.194 103.13 146.194 102.688C146.16 102.251 146.065 101.821 145.91 101.411C145.75 101.023 145.495 100.681 145.169 100.418C144.775 100.135 144.296 99.9955 143.812 100.023C143.334 100.012 142.86 100.109 142.425 100.307C142.057 100.479 141.733 100.733 141.479 101.048C141.233 101.368 141.051 101.732 140.943 102.121C140.837 102.538 140.784 102.967 140.785 103.398V110.636H137.395V89.7422H140.706L140.69 99.235Z" fill="#4C4C4E"/>
<path d="M81.6995 0C78.5818 0.112849 75.6295 1.4307 73.4638 3.67621C71.2981 5.92172 70.0879 8.9198 70.0879 12.0395C70.0879 15.1592 71.2981 18.1573 73.4638 20.4028C75.6295 22.6483 78.5818 23.9662 81.6995 24.079C84.8172 23.9662 87.7695 22.6483 89.9352 20.4028C92.1009 18.1573 93.3111 15.1592 93.3111 12.0395C93.3111 8.9198 92.1009 5.92172 89.9352 3.67621C87.7695 1.4307 84.8172 0.112849 81.6995 0Z" fill="#FFC62D"/>
<path d="M39.6282 16.1797C36.5105 16.2925 33.5582 17.6104 31.3925 19.8559C29.2268 22.1014 28.0166 25.0995 28.0166 28.2192C28.0166 31.3389 29.2268 34.337 31.3925 36.5825C33.5582 38.828 36.5105 40.1459 39.6282 40.2587C42.7459 40.1459 45.6982 38.828 47.8639 36.5825C50.0296 34.337 51.2398 31.3389 51.2398 28.2192C51.2398 25.0995 50.0296 22.1014 47.8639 19.8559C45.6982 17.6104 42.7459 16.2925 39.6282 16.1797Z" fill="#E82D4E"/>
<path d="M65.9149 17.9457C65.2275 17.2531 64.4092 16.7041 63.5078 16.3306C62.6064 15.957 61.6397 15.7663 60.6639 15.7696C58.7512 15.8577 56.9461 16.6795 55.6237 18.0642C54.3013 19.4489 53.5635 21.2899 53.5635 23.2046C53.5635 25.1193 54.3013 26.9603 55.6237 28.345C56.9461 29.7297 58.7512 30.5515 60.6639 30.6396C62.1344 30.6349 63.5705 30.1947 64.7911 29.3746C66.0117 28.5545 66.962 27.3912 67.5221 26.0315C68.0821 24.6718 68.2269 23.1767 67.938 21.7348C67.6492 20.2929 66.9397 18.9689 65.8991 17.9299" fill="#E82D4E"/>
<path d="M68.375 36.2698C68.3941 35.654 68.2889 35.0407 68.0659 34.4664C67.8428 33.8922 67.5064 33.3687 67.0768 32.9272C66.6471 32.4857 66.1329 32.1353 65.5648 31.8968C64.9968 31.6584 64.3866 31.5367 63.7705 31.5391C62.5493 31.5391 61.3782 32.0242 60.5146 32.8877C59.6511 33.7512 59.166 34.9224 59.166 36.1436C59.166 37.3648 59.6511 38.536 60.5146 39.3995C61.3782 40.263 62.5493 40.7481 63.7705 40.7481H63.9124C65.0874 40.7123 66.2041 40.2285 67.0338 39.3959C67.8635 38.5632 68.3434 37.4448 68.375 36.2698Z" fill="#E82D4E"/>
<path d="M55.728 35.3047C54.9773 35.3047 54.2573 35.6029 53.7265 36.1337C53.1957 36.6645 52.8975 37.3845 52.8975 38.1352C52.8975 38.8859 53.1957 39.6058 53.7265 40.1367C54.2573 40.6675 54.9773 40.9657 55.728 40.9657C56.4787 40.9657 57.1986 40.6675 57.7294 40.1367C58.2603 39.6058 58.5585 38.8859 58.5585 38.1352C58.5585 37.3845 58.2603 36.6645 57.7294 36.1337C57.1986 35.6029 56.4787 35.3047 55.728 35.3047Z" fill="#E82D4E"/>
<path d="M86.7293 40.5263C88.7012 40.5263 90.5923 39.7429 91.9867 38.3486C93.381 36.9543 94.1643 35.0631 94.1643 33.0913C94.1643 31.1194 93.381 29.2282 91.9867 27.8339C90.5923 26.4396 88.7012 25.6563 86.7293 25.6562C84.8167 25.7444 83.0115 26.5662 81.6892 27.9509C80.3668 29.3355 79.6289 31.1766 79.6289 33.0913C79.6289 35.0059 80.3668 36.847 81.6892 38.2317C83.0115 39.6163 84.8167 40.4382 86.7293 40.5263Z" fill="#FFC62D"/>
<path d="M73.752 40.7793C74.9732 40.7793 76.1443 40.2942 77.0078 39.4307C77.8714 38.5672 78.3565 37.396 78.3565 36.1748C78.3565 34.9536 77.8714 33.7825 77.0078 32.9189C76.1443 32.0554 74.9732 31.5703 73.752 31.5703C72.5308 31.5703 71.3596 32.0554 70.4961 32.9189C69.6326 33.7825 69.1475 34.9536 69.1475 36.1748C69.1475 37.396 69.6326 38.5672 70.4961 39.4307C71.3596 40.2942 72.5308 40.7793 73.752 40.7793Z" fill="#FFC62D"/>
<path d="M71.7963 25.3086C71.0456 25.3086 70.3257 25.6068 69.7949 26.1376C69.264 26.6685 68.9658 27.3884 68.9658 28.1391C68.9658 28.8898 69.264 29.6097 69.7949 30.1406C70.3257 30.6714 71.0456 30.9696 71.7963 30.9696C72.547 30.9696 73.267 30.6714 73.7978 30.1406C74.3286 29.6097 74.6268 28.8898 74.6268 28.1391C74.6268 27.3884 74.3286 26.6685 73.7978 26.1376C73.267 25.6068 72.547 25.3086 71.7963 25.3086Z" fill="#FFC62D"/>
<path d="M47.3232 78.844C48.4393 79.9588 49.7648 80.842 51.2235 81.4428C52.6821 82.0436 54.2451 82.3501 55.8226 82.3447C59.0157 82.3447 62.078 81.0762 64.3359 78.8184C66.5937 76.5605 67.8622 73.4982 67.8622 70.3051C67.8622 67.1121 66.5937 64.0498 64.3359 61.7919C62.078 59.5341 59.0157 58.2656 55.8226 58.2656C53.4545 58.2812 51.1437 58.9953 49.1796 60.3183C47.2156 61.6414 45.6856 63.5147 44.7815 65.7035C43.8774 67.8922 43.6393 70.2991 44.097 72.6226C44.5548 74.9461 45.688 77.0828 47.3548 78.7651" fill="#688FC5"/>
<path d="M50.7928 41.8203C48.8801 41.9084 47.075 42.7302 45.7526 44.1149C44.4303 45.4996 43.6924 47.3406 43.6924 49.2553C43.6924 51.17 44.4303 53.011 45.7526 54.3957C47.075 55.7804 48.8801 56.6022 50.7928 56.6903C52.7054 56.6022 54.5106 55.7804 55.8329 54.3957C57.1553 53.011 57.8932 51.17 57.8932 49.2553C57.8932 47.3406 57.1553 45.4996 55.8329 44.1149C54.5106 42.7302 52.7054 41.9084 50.7928 41.8203Z" fill="#688FC5"/>
<path d="M63.7705 41.5508C62.5493 41.5508 61.3782 42.0359 60.5146 42.8994C59.6511 43.7629 59.166 44.9341 59.166 46.1553C59.166 47.3765 59.6511 48.5476 60.5146 49.4112C61.3782 50.2747 62.5493 50.7598 63.7705 50.7598C64.9917 50.7598 66.1629 50.2747 67.0264 49.4112C67.8899 48.5476 68.375 47.3765 68.375 46.1553C68.375 44.9341 67.8899 43.7629 67.0264 42.8994C66.1629 42.0359 64.9917 41.5508 63.7705 41.5508Z" fill="#688FC5"/>
<path d="M65.7093 57.0048C66.082 57.0063 66.4513 56.9331 66.7952 56.7895C67.1392 56.646 67.4509 56.435 67.712 56.169C68.1095 55.7742 68.3805 55.2701 68.4905 54.7208C68.6006 54.1715 68.5447 53.6018 68.3299 53.0844C68.1151 52.5669 67.7513 52.1251 67.2846 51.8151C66.8179 51.5052 66.2696 51.3411 65.7093 51.3438C64.9593 51.3479 64.2414 51.6488 63.7125 52.1807C63.1836 52.7125 62.8867 53.4321 62.8867 54.1822C62.8867 54.5542 62.9602 54.9225 63.1031 55.266C63.2459 55.6095 63.4552 55.9214 63.719 56.1837C63.9828 56.446 64.2958 56.6536 64.6401 56.7945C64.9844 56.9354 65.3531 57.0069 65.7251 57.0048" fill="#688FC5"/>
<path d="M97.8782 66.1493C100.996 66.0365 103.948 64.7186 106.114 62.4731C108.28 60.2276 109.49 57.2295 109.49 54.1098C109.49 50.9901 108.28 47.992 106.114 45.7465C103.948 43.501 100.996 42.1832 97.8782 42.0703C94.7605 42.1832 91.8082 43.501 89.6425 45.7465C87.4768 47.992 86.2666 50.9901 86.2666 54.1098C86.2666 57.2295 87.4768 60.2276 89.6425 62.4731C91.8082 64.7186 94.7605 66.0365 97.8782 66.1493Z" fill="#7CBB42"/>
<path d="M76.8422 51.6914C74.8703 51.6914 72.9792 52.4747 71.5849 53.8691C70.1906 55.2634 69.4072 57.1545 69.4072 59.1264C69.4072 61.0983 70.1906 62.9894 71.5849 64.3838C72.9792 65.7781 74.8703 66.5614 76.8422 66.5614C77.8189 66.5614 78.786 66.3688 79.6881 65.9946C80.5903 65.6203 81.4097 65.0718 82.0996 64.3805C82.7895 63.6892 83.3362 62.8685 83.7085 61.9656C84.0809 61.0627 84.2714 60.0952 84.2694 59.1185C84.261 57.15 83.4732 55.265 82.0783 53.876C80.6834 52.487 78.795 51.7072 76.8265 51.7072" fill="#7CBB42"/>
<path d="M73.7202 41.5195C72.5072 41.5361 71.3498 42.0307 70.4994 42.8959C69.6491 43.761 69.1745 44.9267 69.1787 46.1398C69.1829 47.3583 69.6699 48.5254 70.5329 49.3855C71.396 50.2456 72.5648 50.7285 73.7832 50.7285C75.0044 50.7285 76.1756 50.2434 77.0391 49.3799C77.9026 48.5164 78.3877 47.3452 78.3877 46.124C78.3877 44.9028 77.9026 43.7317 77.0391 42.8682C76.1756 42.0046 75.0044 41.5195 73.7832 41.5195H73.7202Z" fill="#7CBB42"/>
<path d="M81.7787 47.0365C82.1554 47.0365 82.5284 46.9616 82.8759 46.816C83.2234 46.6704 83.5384 46.4571 83.8026 46.1885C84.0668 45.9199 84.2749 45.6014 84.4147 45.2515C84.5546 44.9017 84.6233 44.5275 84.6171 44.1508C84.6129 43.4035 84.3142 42.6879 83.7858 42.1595C83.2573 41.631 82.5418 41.3323 81.7944 41.3282C81.4224 41.3261 81.0537 41.3976 80.7094 41.5385C80.3652 41.6794 80.0521 41.887 79.7883 42.1493C79.5246 42.4116 79.3152 42.7235 79.1724 43.067C79.0296 43.4105 78.956 43.7788 78.9561 44.1508C78.9602 44.9008 79.2611 45.6188 79.793 46.1477C80.3248 46.6765 81.0444 46.9734 81.7944 46.9734" fill="#7CBB42"/>
<path d="M57.0681 33.1136C57.0681 32.7623 56.9286 32.4254 56.6802 32.177C56.4317 31.9286 56.0948 31.7891 55.7435 31.7891C55.3922 31.7891 55.0553 31.9286 54.8069 32.177C54.5585 32.4254 54.4189 32.7623 54.4189 33.1136C54.4189 33.4649 54.5585 33.8019 54.8069 34.0503C55.0553 34.2987 55.3922 34.4382 55.7435 34.4382C55.9195 34.4387 56.0938 34.404 56.2563 34.3363C56.4187 34.2687 56.566 34.1693 56.6897 34.044C56.9354 33.7908 57.0714 33.4508 57.0681 33.0979" fill="#E82D4E"/>
<path d="M80.4532 49.1686C80.4532 49.5199 80.5928 49.8568 80.8412 50.1052C81.0896 50.3536 81.4265 50.4932 81.7778 50.4932C81.9538 50.4936 82.1281 50.459 82.2905 50.3913C82.453 50.3236 82.6003 50.2242 82.7239 50.0989C82.9697 49.8457 83.1057 49.5057 83.1024 49.1528C83.1024 48.8015 82.9628 48.4646 82.7144 48.2162C82.466 47.9678 82.1291 47.8282 81.7778 47.8282C81.6033 47.8261 81.4301 47.8589 81.2684 47.9247C81.1068 47.9906 80.9599 48.088 80.8365 48.2115C80.713 48.3349 80.6156 48.4818 80.5497 48.6434C80.4839 48.8051 80.4511 48.9783 80.4532 49.1528" fill="#7CBB42"/>
<path d="M78.1043 28.1488C78.1043 27.7975 77.9648 27.4606 77.7164 27.2122C77.468 26.9638 77.1311 26.8242 76.7798 26.8242C76.6062 26.8241 76.4343 26.859 76.2745 26.9267C76.1146 26.9944 75.9701 27.0936 75.8494 27.2184C75.7263 27.3428 75.6293 27.4906 75.5643 27.6532C75.4993 27.8157 75.4676 27.9896 75.4709 28.1646C75.4709 28.5159 75.6105 28.8528 75.8589 29.1012C76.1073 29.3496 76.4442 29.4892 76.7955 29.4892C76.9701 29.4913 77.1433 29.4585 77.3049 29.3926C77.4666 29.3268 77.6134 29.2293 77.7369 29.1059C77.8603 28.9825 77.9578 28.8356 78.0236 28.674C78.0894 28.5123 78.1222 28.3391 78.1201 28.1646" fill="#FFC62D"/>
<path d="M60.8529 52.8555C60.5016 52.8555 60.1647 52.995 59.9163 53.2434C59.6679 53.4918 59.5283 53.8288 59.5283 54.1801C59.5283 54.5314 59.6679 54.8683 59.9163 55.1167C60.1647 55.3651 60.5016 55.5046 60.8529 55.5046C61.2042 55.5046 61.5411 55.3651 61.7895 55.1167C62.0379 54.8683 62.1775 54.5314 62.1775 54.1801C62.1775 53.8288 62.0379 53.4918 61.7895 53.2434C61.5411 52.995 61.2042 52.8555 60.8529 52.8555Z" fill="#688FC5"/>
<path d="M33.8565 104.72V103.663C33.8544 102.945 33.9939 102.233 34.2669 101.568C34.54 100.904 34.9413 100.299 35.448 99.7896C35.9546 99.28 36.5566 98.8752 37.2197 98.5984C37.8828 98.3215 38.5939 98.1779 39.3125 98.1758H40.369C41.0896 98.1737 41.8036 98.3136 42.4702 98.5875C43.1368 98.8613 43.7429 99.2638 44.2539 99.7719C44.7649 100.28 45.1709 100.884 45.4486 101.549C45.7263 102.214 45.8703 102.927 45.8723 103.648V104.704C45.8723 106.157 45.2963 107.55 44.2706 108.579C43.2449 109.607 41.8532 110.187 40.4005 110.192H39.344C38.6241 110.194 37.9109 110.054 37.2452 109.78C36.5795 109.506 35.9745 109.103 35.4647 108.595C34.9549 108.086 34.5505 107.482 34.2745 106.817C33.9985 106.153 33.8565 105.44 33.8565 104.72Z" fill="#4C4C4E"/>
</svg>
